<svg width="500" height="59" viewBox="0 0 500 59" fill="none" xmlns="http://www.w3.org/2000/svg">
<path d="M0 2.81622C0 1.26086 1.26086 0 2.81622 0H18.8198C19.6132 0 20.3698 0.334716 20.9036 0.921825L22.7478 2.95048C23.2815 3.53759 24.0382 3.8723 24.8316 3.8723H67.5893C69.1446 3.8723 70.4055 5.13317 70.4055 6.68852V41.1872C70.4055 42.7426 69.1446 44.0034 67.5893 44.0034H2.81621C1.26086 44.0034 0 42.7426 0 41.1872V2.81622Z" fill="#E58B0B"/>
<g filter="url(#filter0_d_9_45)">
<rect x="8.09668" y="7.04055" width="54.2122" height="20.0656" rx="2.81622" fill="white"/>
</g>
<rect y="11.6169" width="70.4055" height="38.371" rx="2.81622" fill="#FEB90C"/>
<mask id="mask0_9_45" style="mask-type:alpha" maskUnits="userSpaceOnUse" x="0" y="11" width="71" height="39">
<rect y="11.6169" width="70.4055" height="38.371" rx="2.81622" fill="#FEB90C"/>
</mask>
<g mask="url(#mask0_9_45)">
<rect width="2.81622" height="32.9004" transform="matrix(-0.933524 -0.358514 -0.358514 0.933524 41.3431 22.9186)" fill="#394264"/>
<path d="M35.8796 29.2899L34.5651 28.785C33.8392 28.5062 33.0246 28.8687 32.7458 29.5947V29.5947C32.467 30.3207 32.8295 31.1352 33.5555 31.414L34.87 31.9189L35.8796 29.2899Z" fill="#4E597C"/>
<path d="M37.4989 32.9285L38.8134 33.4333C39.5394 33.7122 39.9019 34.5267 39.6231 35.2527V35.2527C39.3443 35.9787 38.5297 36.3412 37.8038 36.0624L36.4892 35.5575L37.4989 32.9285Z" fill="#4E597C"/>
<path d="M35.6058 37.8579L36.9203 38.3627C37.6463 38.6416 38.0088 39.4561 37.73 40.1821V40.1821C37.4512 40.9081 36.6367 41.2706 35.9107 40.9918L34.5962 40.4869L35.6058 37.8579Z" fill="#4E597C"/>
<path d="M33.5865 43.1159L34.9011 43.6208C35.627 43.8996 35.9895 44.7141 35.7107 45.4401V45.4401C35.4319 46.1661 34.6174 46.5286 33.8914 46.2498L32.5769 45.7449L33.5865 43.1159Z" fill="#4E597C"/>
<path d="M33.8604 34.5479L32.5458 34.0431C31.8199 33.7642 31.0053 34.1268 30.7265 34.8527V34.8527C30.4477 35.5787 30.8102 36.3933 31.5362 36.6721L32.8507 37.1769L33.8604 34.5479Z" fill="#4E597C"/>
<path d="M31.9672 39.4773L30.6527 38.9724C29.9267 38.6936 29.1121 39.0561 28.8333 39.7821V39.7821C28.5545 40.5081 28.917 41.3226 29.643 41.6015L30.9575 42.1063L31.9672 39.4773Z" fill="#4E597C"/>
<path d="M29.9479 44.7353L28.6334 44.2305C27.9074 43.9517 27.0928 44.3142 26.814 45.0401V45.0401C26.5352 45.7661 26.8977 46.5807 27.6237 46.8595L28.9382 47.3643L29.9479 44.7353Z" fill="#4E597C"/>
<g filter="url(#filter1_i_9_45)">
<path d="M22.425 41.23C22.1729 41.3675 21.9094 41.4363 21.6344 41.4363C21.3708 41.4363 21.1302 41.3675 20.9124 41.23L9.96314 34.9217C9.47039 34.6467 9.22402 34.1826 9.22402 33.5294C9.22402 32.9679 9.47039 32.5439 9.96314 32.2574L20.9124 25.9491C21.1302 25.8116 21.3708 25.7429 21.6344 25.7429C22.2532 25.7429 22.7058 26.0064 22.9923 26.5336C23.1412 26.7857 23.2157 27.0492 23.2157 27.3242C23.2157 27.9087 22.9694 28.3441 22.4766 28.6306L13.865 33.5982L22.4766 38.5486C22.9694 38.835 23.2157 39.2819 23.2157 39.8893C23.2157 40.4852 22.9522 40.9321 22.425 41.23ZM47.0642 41.23C46.5371 40.9321 46.2735 40.4852 46.2735 39.8893C46.2735 39.2819 46.5199 38.835 47.0126 38.5486L55.6243 33.5982L47.0126 28.6306C46.5199 28.3441 46.2735 27.9087 46.2735 27.3242C46.2735 27.0492 46.348 26.7857 46.497 26.5336C46.7835 26.0064 47.2361 25.7429 47.8549 25.7429C48.1185 25.7429 48.3591 25.8116 48.5768 25.9491L59.5261 32.2574C60.0189 32.5439 60.2652 32.9679 60.2652 33.5294C60.2652 34.1826 60.0189 34.6467 59.5261 34.9217L48.5768 41.23C48.3591 41.3675 48.1127 41.4363 47.8377 41.4363C47.5742 41.4363 47.3163 41.3675 47.0642 41.23Z" fill="#E58B0B"/>
</g>
</g>
<path d="M38.7931 19.4354C39.4317 18.5755 40.565 18.2464 41.5649 18.6304V18.6304C42.5648 19.0144 43.1864 20.0175 43.0853 21.0839L42.6829 25.3271C42.4594 27.6834 40.0499 29.1766 37.8404 28.328V28.328C35.6309 27.4794 34.8403 24.7572 36.2516 22.8571L38.7931 19.4354Z" fill="white"/>
<rect x="39.1821" y="23.1499" width="1.44952" height="2.41587" rx="0.724762" transform="rotate(21.01 39.1821 23.1499)" fill="#4E597C"/>
<rect x="39.4387" y="15.7435" width="6.03969" height="3.62381" rx="1.05608" transform="rotate(21.01 39.4387 15.7435)" fill="#D9D9D9"/>
<path d="M132.636 46.169V3.0175H138.973V46.169H132.636ZM105.516 46.169V3.0175H111.853V46.169H105.516ZM109.698 28.0466V22.0903H134.537V28.0466H109.698ZM158.076 47.0561C155.668 47.0561 153.598 46.6337 151.866 45.7888C150.134 44.944 148.804 43.74 147.874 42.177C146.987 40.5718 146.544 38.6708 146.544 36.4742C146.544 34.4465 147.008 32.6512 147.938 31.0882C148.867 29.4829 150.198 28.2156 151.93 27.2863C153.662 26.3569 155.71 25.8922 158.076 25.8922C161.033 25.8922 163.399 26.5681 165.173 27.9199C166.989 29.2295 168.257 31.0459 168.975 33.3693H165.426V25.4487C165.426 24.1391 164.983 22.9352 164.096 21.8369C163.209 20.7386 161.646 20.1894 159.407 20.1894C158.224 20.1894 156.914 20.3372 155.478 20.633C154.084 20.8864 152.627 21.3511 151.106 22.027L149.205 17.1479C150.937 16.303 152.732 15.6694 154.591 15.2469C156.45 14.8245 158.266 14.6133 160.04 14.6133C162.702 14.6133 164.898 15.0991 166.63 16.0707C168.362 17.0423 169.651 18.3518 170.496 19.9993C171.34 21.6045 171.763 23.421 171.763 25.4487V46.169H167.201L165.616 40.5295L168.975 39.5791C168.214 42.0714 166.863 43.9512 164.919 45.2185C162.976 46.4436 160.695 47.0561 158.076 47.0561ZM159.217 41.4167C161.075 41.4167 162.575 40.9942 163.715 40.1494C164.856 39.2622 165.426 38.0372 165.426 36.4742C165.426 34.8689 164.856 33.6439 163.715 32.799C162.575 31.9542 161.075 31.5317 159.217 31.5317C157.358 31.5317 155.858 31.9542 154.718 32.799C153.577 33.6439 153.007 34.8689 153.007 36.4742C153.007 38.0372 153.577 39.2622 154.718 40.1494C155.858 40.9942 157.358 41.4167 159.217 41.4167ZM193.889 46.8027C190.721 46.8027 187.975 46.1268 185.652 44.775C183.328 43.381 181.533 41.48 180.266 39.0721C178.998 36.6643 178.365 33.8762 178.365 30.708C178.365 27.5397 178.998 24.7517 180.266 22.3438C181.533 19.9359 183.328 18.0561 185.652 16.7043C187.975 15.3103 190.721 14.6133 193.889 14.6133C196.888 14.6133 199.613 15.437 202.063 17.0845C204.513 18.6898 206.287 20.8442 207.386 23.5477L201.366 26.0823C200.69 24.3081 199.676 22.9775 198.325 22.0903C196.973 21.161 195.431 20.6963 193.699 20.6963C191.164 20.6963 189.052 21.5834 187.362 23.3576C185.673 25.0896 184.828 27.5397 184.828 30.708C184.828 33.8762 185.673 36.3475 187.362 38.1217C189.052 39.8536 191.164 40.7196 193.699 40.7196C195.431 40.7196 196.973 40.2761 198.325 39.389C199.676 38.4596 200.69 37.1078 201.366 35.3336L207.386 37.8682C206.245 40.5718 204.45 42.7473 202 44.3948C199.592 46 196.888 46.8027 193.889 46.8027ZM217.828 30.5812V29.6941L231.261 15.2469H238.738L223.657 31.7852L223.087 27.6031L238.865 46.169H231.261L217.828 30.5812ZM213.139 3.0175H219.348V46.169H213.139V3.0175ZM252.24 47.0561C249.832 47.0561 247.762 46.6337 246.03 45.7888C244.298 44.944 242.967 43.74 242.038 42.177C241.151 40.5718 240.707 38.6708 240.707 36.4742C240.707 34.4465 241.172 32.6512 242.101 31.0882C243.031 29.4829 244.361 28.2156 246.093 27.2863C247.825 26.3569 249.874 25.8922 252.24 25.8922C255.197 25.8922 257.562 26.5681 259.337 27.9199C261.153 29.2295 262.42 31.0459 263.139 33.3693H259.59V25.4487C259.59 24.1391 259.147 22.9352 258.259 21.8369C257.372 20.7386 255.809 20.1894 253.57 20.1894C252.388 20.1894 251.078 20.3372 249.642 20.633C248.248 20.8864 246.79 21.3511 245.27 22.027L243.369 17.1479C245.101 16.303 246.896 15.6694 248.755 15.2469C250.613 14.8245 252.43 14.6133 254.204 14.6133C256.865 14.6133 259.062 15.0991 260.794 16.0707C262.526 17.0423 263.814 18.3518 264.659 19.9993C265.504 21.6045 265.927 23.421 265.927 25.4487V46.169H261.364L259.78 40.5295L263.139 39.5791C262.378 42.0714 261.026 43.9512 259.083 45.2185C257.14 46.4436 254.859 47.0561 252.24 47.0561ZM253.38 41.4167C255.239 41.4167 256.739 40.9942 257.879 40.1494C259.02 39.2622 259.59 38.0372 259.59 36.4742C259.59 34.8689 259.02 33.6439 257.879 32.799C256.739 31.9542 255.239 31.5317 253.38 31.5317C251.522 31.5317 250.022 31.9542 248.881 32.799C247.741 33.6439 247.171 34.8689 247.171 36.4742C247.171 38.0372 247.741 39.2622 248.881 40.1494C250.022 40.9942 251.522 41.4167 253.38 41.4167ZM284.907 46.7393C282.203 46.7393 280.049 45.9578 278.444 44.3948C276.881 42.7896 276.099 40.3183 276.099 36.9811V15.6271V15.2469L277.303 8.27679H282.436V37.1078C282.436 38.2906 282.731 39.1778 283.323 39.7692C283.956 40.3606 284.738 40.6563 285.667 40.6563C286.385 40.6563 287.019 40.614 287.568 40.5295C288.117 40.4451 288.603 40.3394 289.026 40.2127V46.1057C288.476 46.2746 287.864 46.4225 287.188 46.5492C286.554 46.6759 285.794 46.7393 284.907 46.7393ZM271.347 21.0765V15.2469H289.026V21.0765H271.347ZM296.907 46.169V3.0175H303.243V46.169H296.907ZM317.627 46.169V26.3992C317.627 24.2025 317.12 22.724 316.106 21.9636C315.135 21.2032 313.973 20.823 312.621 20.823C311.269 20.823 309.896 21.0976 308.502 21.6468C307.108 22.196 305.862 22.9352 304.764 23.8646C303.666 24.7939 302.821 25.8289 302.229 26.9694L301.469 20.8864C302.652 19.5346 303.94 18.3941 305.334 17.4647C306.728 16.5354 308.207 15.8383 309.77 15.3737C311.333 14.8667 312.938 14.6133 314.585 14.6133C316.782 14.6133 318.514 14.9935 319.781 15.7539C321.049 16.472 321.978 17.4647 322.569 18.732C323.161 19.9571 323.541 21.3511 323.71 22.9141C323.879 24.4771 323.963 26.0823 323.963 27.7298V46.169H317.627ZM346.071 46.8027C342.945 46.8027 340.178 46.1479 337.771 44.8384C335.405 43.4866 333.567 41.6067 332.258 39.1989C330.948 36.791 330.293 33.9818 330.293 30.7713C330.293 27.5186 330.948 24.6883 332.258 22.2804C333.567 19.8726 335.405 17.9927 337.771 16.641C340.178 15.2892 342.945 14.6133 346.071 14.6133C349.24 14.6133 352.007 15.2892 354.372 16.641C356.738 17.9927 358.575 19.8726 359.885 22.2804C361.237 24.6883 361.913 27.5186 361.913 30.7713C361.913 33.9818 361.237 36.791 359.885 39.1989C358.575 41.6067 356.738 43.4866 354.372 44.8384C352.007 46.1479 349.24 46.8027 346.071 46.8027ZM346.071 40.7196C348.902 40.7196 351.162 39.8114 352.851 37.9949C354.583 36.1362 355.449 33.7284 355.449 30.7713C355.449 27.7721 354.583 25.3431 352.851 23.4844C351.162 21.6257 348.902 20.6963 346.071 20.6963C343.283 20.6963 341.023 21.6257 339.291 23.4844C337.602 25.3008 336.757 27.7087 336.757 30.708C336.757 33.7073 337.602 36.1362 339.291 37.9949C341.023 39.8114 343.283 40.7196 346.071 40.7196ZM386.21 14.6133C388.407 14.6133 390.139 14.9935 391.406 15.7539C392.673 16.472 393.603 17.4647 394.194 18.732C394.785 19.9571 395.166 21.3511 395.335 22.9141C395.504 24.4771 395.588 26.0823 395.588 27.7298V46.169H389.252V26.3992C389.252 24.2025 388.745 22.724 387.731 21.9636C386.759 21.2032 385.598 20.823 384.246 20.823C382.894 20.823 381.521 21.0976 380.127 21.6468C378.733 22.196 377.487 22.9352 376.388 23.8646C375.29 24.7939 374.445 25.8289 373.854 26.9694V23.421H374.868V46.169H368.531V15.2469H373.347L374.678 20.6963L373.093 20.8864C374.276 19.5346 375.565 18.3941 376.959 17.4647C378.353 16.5354 379.831 15.8383 381.394 15.3737C382.957 14.8667 384.563 14.6133 386.21 14.6133ZM408.501 46.4858C407.614 46.4858 406.79 46.2535 406.029 45.7888C405.269 45.3242 404.656 44.7116 404.192 43.9512C403.727 43.1909 403.495 42.3671 403.495 41.48C403.495 40.5507 403.727 39.7269 404.192 39.0088C404.656 38.2484 405.269 37.6359 406.029 37.1712C406.79 36.7065 407.614 36.4742 408.501 36.4742C409.43 36.4742 410.275 36.7065 411.035 37.1712C411.796 37.6359 412.408 38.2484 412.873 39.0088C413.337 39.7269 413.57 40.5507 413.57 41.48C413.57 42.3671 413.337 43.1909 412.873 43.9512C412.408 44.7116 411.796 45.3242 411.035 45.7888C410.275 46.2535 409.43 46.4858 408.501 46.4858ZM443.957 40.3394V46.169H420.068V41.2266L437.937 18.3518L440.028 21.0765H420.448V15.2469H443.703V20.1894L425.771 43.0641L421.906 40.3394H443.957ZM457.525 46.169H451.188V15.2469H457.525V46.169ZM450.238 5.74219C450.238 4.51714 450.597 3.52442 451.315 2.76404C452.075 1.96142 453.089 1.56011 454.357 1.56011C455.582 1.56011 456.574 1.96142 457.335 2.76404C458.095 3.52442 458.475 4.51714 458.475 5.74219C458.475 6.92501 458.095 7.91772 457.335 8.72034C456.574 9.48072 455.582 9.86091 454.357 9.86091C453.089 9.86091 452.075 9.48072 451.315 8.72034C450.597 7.91772 450.238 6.92501 450.238 5.74219ZM482.074 46.8027C479.286 46.8027 476.857 46.1479 474.787 44.8384C472.717 43.4866 471.091 41.6067 469.908 39.1989C468.767 36.791 468.197 33.9818 468.197 30.7713C468.197 27.5186 468.767 24.6883 469.908 22.2804C471.091 19.8726 472.717 17.9927 474.787 16.641C476.857 15.2892 479.286 14.6133 482.074 14.6133C484.946 14.6133 487.439 15.2892 489.551 16.641C491.705 17.9927 493.374 19.8726 494.557 22.2804C495.739 24.6883 496.331 27.5186 496.331 30.7713C496.331 33.9818 495.739 36.791 494.557 39.1989C493.374 41.6067 491.705 43.4866 489.551 44.8384C487.439 46.1479 484.946 46.8027 482.074 46.8027ZM466.423 58.2084V15.2469H471.238L472.759 21.4567H472.125V39.0721H472.759V58.2084H466.423ZM481.123 41.3533C483.742 41.3533 485.855 40.3817 487.46 38.4385C489.065 36.4953 489.868 33.9396 489.868 30.7713C489.868 27.5609 489.065 24.984 487.46 23.0408C485.855 21.0554 483.742 20.0627 481.123 20.0627C478.546 20.0627 476.455 21.0343 474.85 22.9775C473.245 24.9206 472.442 27.4975 472.442 30.708C472.442 33.9185 473.245 36.4953 474.85 38.4385C476.455 40.3817 478.546 41.3533 481.123 41.3533Z" fill="#4E597C"/>
<defs>
<filter id="filter0_d_9_45" x="5.28046" y="5.63244" width="59.8446" height="25.698" filterUnits="userSpaceOnUse" color-interpolation-filters="sRGB">
<feFlood flood-opacity="0" result="BackgroundImageFix"/>
<feColorMatrix in="SourceAlpha" type="matrix" values="0 0 0 0 0 0 0 0 0 0 0 0 0 0 0 0 0 0 127 0" result="hardAlpha"/>
<feOffset dy="1.40811"/>
<feGaussianBlur stdDeviation="1.40811"/>
<feComposite in2="hardAlpha" operator="out"/>
<feColorMatrix type="matrix" values="0 0 0 0 0 0 0 0 0 0 0 0 0 0 0 0 0 0 0.25 0"/>
<feBlend mode="normal" in2="BackgroundImageFix" result="effect1_dropShadow_9_45"/>
<feBlend mode="normal" in="SourceGraphic" in2="effect1_dropShadow_9_45" result="shape"/>
</filter>
<filter id="filter1_i_9_45" x="9.224" y="25.7429" width="51.0413" height="16.0454" filterUnits="userSpaceOnUse" color-interpolation-filters="sRGB">
<feFlood flood-opacity="0" result="BackgroundImageFix"/>
<feBlend mode="normal" in="SourceGraphic" in2="BackgroundImageFix" result="shape"/>
<feColorMatrix in="SourceAlpha" type="matrix" values="0 0 0 0 0 0 0 0 0 0 0 0 0 0 0 0 0 0 127 0" result="hardAlpha"/>
<feOffset dy="0.352027"/>
<feGaussianBlur stdDeviation="0.176014"/>
<feComposite in2="hardAlpha" operator="arithmetic" k2="-1" k3="1"/>
<feColorMatrix type="matrix" values="0 0 0 0 0 0 0 0 0 0 0 0 0 0 0 0 0 0 0.05 0"/>
<feBlend mode="normal" in2="shape" result="effect1_innerShadow_9_45"/>
</filter>
</defs>
</svg>
